%TF.GenerationSoftware,KiCad,Pcbnew,10.0.3*%
%TF.CreationDate,2026-09-20T11:34:08+05:45*%
%TF.ProjectId,LED-chaser,4c45442d-6368-4617-9365-722e6b696361,rev?*%
%TF.SameCoordinates,Original*%
%TF.FileFunction,Profile,NP*%
%FSLAX46Y46*%
G04 Gerber Fmt 4.6, Leading zero omitted, Abs format (unit mm)*
G04 Created by KiCad (PCBNEW 10.0.3) date 2026-09-20 11:34:08*
%MOMM*%
%LPD*%
G01*
G04 APERTURE LIST*
%TA.AperFunction,Profile*%
%ADD10C,0.100000*%
%TD*%
G04 APERTURE END LIST*
D10*
X118488008Y-79090770D02*
G75*
G02*
X118577595Y-76991154I10913192J586070D01*
G01*
X118577604Y-76991155D02*
G75*
G02*
X119000099Y-75424284I6631896J-947845D01*
G01*
X118603273Y-80636417D02*
G75*
G02*
X118488008Y-79090770I11191527J1611717D01*
G01*
X118750650Y-81704764D02*
G75*
G02*
X118603275Y-80636417I10265750J1960464D01*
G01*
X118931384Y-82740662D02*
G75*
G02*
X118750651Y-81704764I10999316J2452762D01*
G01*
X119000095Y-75424282D02*
G75*
G02*
X120846774Y-73430525I3447005J-1340618D01*
G01*
X119046595Y-83325701D02*
G75*
G02*
X118931378Y-82740663I3673405J1027301D01*
G01*
X119046595Y-83325701D02*
X119964996Y-87048762D01*
X119142785Y-101146626D02*
G75*
G02*
X119175429Y-97811298I16526135J1506076D01*
G01*
X119142785Y-101146626D02*
X119255549Y-102176457D01*
X119231053Y-97324713D02*
X119175429Y-97811298D01*
X119374917Y-96475758D02*
X119231053Y-97324713D01*
X119374917Y-96475758D02*
G75*
G02*
X121168790Y-91260165I19430283J-3766642D01*
G01*
X119964996Y-87048762D02*
X120721593Y-89691675D01*
X120602453Y-106754585D02*
G75*
G02*
X119255539Y-102176458I14670947J6803485D01*
G01*
X120721593Y-89691675D02*
X121142122Y-91107069D01*
X120846779Y-73430535D02*
G75*
G02*
X123018813Y-73056675I1859921J-4309265D01*
G01*
X121142122Y-91107069D02*
X121168782Y-91260161D01*
X123018814Y-73056662D02*
G75*
G02*
X124713433Y-73315949I-451114J-8615738D01*
G01*
X123784313Y-111240011D02*
G75*
G02*
X120602454Y-106754585I10856887J11072911D01*
G01*
X125448550Y-73505878D02*
X124713434Y-73315947D01*
X125448550Y-73505878D02*
G75*
G02*
X128955487Y-74970252I-7305950J-22428022D01*
G01*
X128650254Y-114774344D02*
G75*
G02*
X123784311Y-111240013I8909546J17383144D01*
G01*
X134768355Y-117103216D02*
G75*
G02*
X128650257Y-114774339I6770945J26988416D01*
G01*
X134768355Y-117103216D02*
X135580770Y-117318973D01*
X135290076Y-78869499D02*
X128955483Y-74970259D01*
X135290076Y-78869499D02*
G75*
G02*
X140259707Y-77440698I10567024J-27397001D01*
G01*
X135580770Y-117318973D02*
X136978305Y-117619376D01*
X136978305Y-117619376D02*
X137975653Y-117802181D01*
X137975653Y-117802181D02*
X138896646Y-117949157D01*
X138896646Y-117949157D02*
X139340657Y-118011456D01*
X139340657Y-118011456D02*
X141217536Y-118235825D01*
X141107020Y-77289417D02*
X140259706Y-77440691D01*
X141107020Y-77289417D02*
G75*
G02*
X142101681Y-77141301I1942180J-9628683D01*
G01*
X141217536Y-118235825D02*
G75*
G02*
X141733284Y-118274814I9464J-3305475D01*
G01*
X141733284Y-118274815D02*
X143280549Y-118385719D01*
X142101681Y-77141300D02*
G75*
G02*
X143131097Y-77027029I1311319J-7119200D01*
G01*
X143131097Y-77027023D02*
G75*
G02*
X146632942Y-76888180I2819203J-26874277D01*
G01*
X143280549Y-118385719D02*
X144975166Y-118429390D01*
X144975166Y-118429390D02*
X149763984Y-118307192D01*
X147737735Y-76935435D02*
X146632942Y-76888184D01*
X148247215Y-76977859D02*
X147737735Y-76935435D01*
X148247215Y-76977859D02*
G75*
G02*
X149683809Y-77122912I-861915J-15722841D01*
G01*
X149763984Y-118307192D02*
G75*
G02*
X150206374Y-118272704I352816J-1671108D01*
G01*
X150132695Y-77178958D02*
X149683809Y-77122913D01*
X150206374Y-118272702D02*
X151383258Y-118157615D01*
X151053948Y-77324774D02*
X150132695Y-77178958D01*
X151053948Y-77324774D02*
G75*
G02*
X156143048Y-78683855I-4839848J-28330526D01*
G01*
X151383258Y-118157615D02*
X151864154Y-118099041D01*
X152711457Y-117987040D02*
G75*
G02*
X151864154Y-118099039I-1388457J7243040D01*
G01*
X153706122Y-117838911D02*
G75*
G02*
X152711457Y-117987038I-1701222J8010011D01*
G01*
X153706122Y-117838911D02*
X154919749Y-117638616D01*
X154919749Y-117638616D02*
X156464649Y-117308978D01*
X156229082Y-78643460D02*
X156143049Y-78683852D01*
X156464649Y-117308978D02*
G75*
G02*
X156911164Y-117207648I773051J-2372022D01*
G01*
X156911165Y-117207653D02*
X158567187Y-116759195D01*
X158567187Y-116759195D02*
X161293209Y-115838756D01*
X161799351Y-75701104D02*
X156229082Y-78643460D01*
X161799351Y-75701104D02*
G75*
G02*
X166665444Y-73786094I14791549J-30445796D01*
G01*
X165575667Y-113743841D02*
G75*
G02*
X161293213Y-115838766I-14269567J23745341D01*
G01*
X166665445Y-73786098D02*
G75*
G02*
X167385156Y-73591315I2171655J-6597102D01*
G01*
X167385157Y-73591318D02*
G75*
G02*
X168304819Y-73371094I2634243J-8970282D01*
G01*
X169258055Y-73221896D02*
X168304819Y-73371091D01*
X169989185Y-73165391D02*
X169258055Y-73221896D01*
X169989185Y-73165391D02*
G75*
G02*
X171548427Y-73268388I336815J-6755009D01*
G01*
X170077668Y-110065486D02*
G75*
G02*
X165575668Y-113743842I-14432768J13070286D01*
G01*
X170572976Y-90242330D02*
G75*
G02*
X170705943Y-89803455I841824J-15470D01*
G01*
X170572976Y-90242330D02*
G75*
G02*
X173085530Y-96020359I-19303076J-11829170D01*
G01*
X170705945Y-89803456D02*
X172220860Y-86234567D01*
X171548427Y-73268388D02*
G75*
G02*
X173357332Y-74154264I-641027J-3598712D01*
G01*
X172220860Y-86234567D02*
X173996003Y-81152171D01*
X173085519Y-96020362D02*
G75*
G02*
X173297685Y-96919474I-10082719J-2853838D01*
G01*
X173260503Y-104287754D02*
G75*
G02*
X170077679Y-110065496I-13750803J3809454D01*
G01*
X173260503Y-104287754D02*
X173413536Y-103630019D01*
X173297687Y-96919474D02*
G75*
G02*
X173413406Y-97505549I-3593187J-1013926D01*
G01*
X173357347Y-74154247D02*
G75*
G02*
X174410935Y-76128195I-2613047J-2662853D01*
G01*
X173413413Y-97505548D02*
G75*
G02*
X173593655Y-98687771I-10787713J-2249552D01*
G01*
X173593655Y-98687771D02*
G75*
G02*
X173707246Y-100235035I-12013055J-1659729D01*
G01*
X173595196Y-102555922D02*
G75*
G02*
X173413536Y-103630019I-7534696J721922D01*
G01*
X173707241Y-100235035D02*
G75*
G02*
X173595192Y-102555921I-12396441J-564665D01*
G01*
X174476284Y-78683924D02*
G75*
G02*
X173996006Y-81152172I-18403884J2300224D01*
G01*
X174476284Y-78683924D02*
X174517471Y-78169320D01*
X174515335Y-76841950D02*
X174410961Y-76128190D01*
X174515335Y-76841950D02*
G75*
G02*
X174517482Y-78169321I-5788535J-673050D01*
G01*
M02*
